# xmcd CD database file
#
# Track frame offsets:
#	150
#	17505
#	34997
#	49655
#	68618
#	89284
#	101136
#	121159
#	134877
#	147866
#	170239
#	183840
#	196698
#	206190
#	226953
#	259089
#
# Disc length: 3710 seconds
#
# Revision: 0
# Processed by: cddbd v1.5.2PL0 Copyright (c) Steve Scherf et al.
# Submitted via: CDex 1.51
#
DISCID=e50e7c10
DTITLE=Bratsch - UrbanBratsch
DYEAR=2011
DGENRE=Jazz
TTITLE0=SIRBA DIN JOC DE CONSTANCA - HORA (Trad - Arrgt Bruno Girard)
TTITLE1=SCÉTATE (Russo - Costa - Arrgt François Castiello)
TTITLE2=FUEGO (Bruno Girard)
TTITLE3=DANS LE CIEL DE MA RUE (Christophe Pagnon - Don Gharibian)
TTITLE4=SKA FONCE (François Castiello)
TTITLE5=ON PEUT TOUJOURS RÊVER (B. Girard daprès trad. roumain - Paroles Bruno Girard)
TTITLE6=RER C (Nano Peyley, paroles et musique)
TTITLE7=INTRO GARO (Bruno Girard) - GAROÏBAR (Trad. Arrgt B. Girard)
TTITLE8=LA BONNE AVENTURE (Bruno Girard, paroles et musique)
TTITLE9=CARAMBOLE (François Castiello)
TTITLE10=LA FIANCEE DU PIRATE (Brecht - Weill - Arrgt B. Girard)
TTITLE11=CLICHES (Nano Peylet, paroles et musique)
TTITLE12=MALAKOFF (Nano Peylet, paroles et musique)
TTITLE13=PHARIZM (F. Castiello - Intro inspirée dun air traditionnel roumain)
TTITLE14=SIYALE (Audrey Vernet - Don Gharibian)
TTITLE15=KATUNSKO HORO (Pavkovic Ljubisa - Arrgt François Castiello)
EXTD=YEAR: 2011
EXTT0=
EXTT1=
EXTT2=
EXTT3=
EXTT4=
EXTT5=
EXTT6=
EXTT7=
EXTT8=
EXTT9=
EXTT10=
EXTT11=
EXTT12=
EXTT13=
EXTT14=
EXTT15=
PLAYORDER=
